# This file uses centimeters as units for non-parametric coordinates.

mtllib tweede boom.mtl
g default
v -4.817339 0.362412 -3.181608
v -5.480593 0.362412 -3.844862
v -6.386614 0.362412 -4.087630
v -7.292635 0.362412 -3.844862
v -7.955888 0.362412 -3.181608
v -8.198658 0.362412 -2.275588
v -7.955888 0.362412 -1.369566
v -7.292635 0.362412 -0.706314
v -6.386614 0.362412 -0.463546
v -5.480593 0.362412 -0.706314
v -4.817339 0.362412 -1.369566
v -4.574571 0.362412 -2.275588
v -5.085592 3.744971 -3.026732
v -5.635469 3.744971 -3.576608
v -6.386614 3.744971 -3.777877
v -7.137759 3.744971 -3.576608
v -7.687635 3.744971 -3.026732
v -7.888904 3.744971 -2.275588
v -7.687635 3.744971 -1.524443
v -7.137759 3.744971 -0.974567
v -6.386614 3.744971 -0.773299
v -5.635469 3.744971 -0.974567
v -5.085592 3.744971 -1.524443
v -4.884324 3.744971 -2.275588
v -6.386614 3.744971 -2.275588
v -4.318737 -0.234377 -3.469476
v -5.192724 -0.234377 -4.343463
v -6.386614 -0.427106 -2.275588
v -6.386614 -0.234377 -4.663365
v -7.580502 -0.234377 -4.343463
v -8.454489 -0.234377 -3.469476
v -8.774393 -0.234377 -2.275588
v -8.454489 -0.234377 -1.081699
v -7.580502 -0.234377 -0.207712
v -6.386614 -0.234377 0.112189
v -5.192724 -0.234377 -0.207712
v -4.318737 -0.234377 -1.081699
v -3.998837 -0.234377 -2.275588
v -4.977472 2.381631 -3.089155
v -5.573046 2.381631 -3.684728
v -6.386614 2.381631 -3.902723
v -7.200181 2.381631 -3.684728
v -7.795756 2.381631 -3.089155
v -8.013750 2.381631 -2.275588
v -7.795756 2.381631 -1.462020
v -7.200181 2.381631 -0.866448
v -6.425040 2.004454 -0.703523
v -5.573046 2.133771 -0.866448
v -4.977472 2.293950 -1.462020
v -4.759478 2.381631 -2.275588
v -4.967308 2.253449 -3.095024
v -5.567176 2.253449 -3.694893
v -6.386614 2.253449 -3.914461
v -7.206049 2.253449 -3.694893
v -7.805920 2.253449 -3.095024
v -8.025486 2.253449 -2.275588
v -7.805920 2.253449 -1.456151
v -7.206049 2.253449 -0.856282
v -6.425040 1.876272 -0.691785
v -5.567176 2.005589 -0.856282
v -4.967308 2.165768 -1.456151
v -4.747740 2.253449 -2.275588
v -4.967308 2.253449 -3.095024
v -5.567176 2.253449 -3.694893
v -5.573046 2.381631 -3.684728
v -4.977472 2.381631 -3.089155
v -6.386614 2.253449 -3.914461
v -6.386614 2.381631 -3.902723
v -7.206049 2.253449 -3.694893
v -7.200181 2.381631 -3.684728
v -7.805920 2.253449 -3.095024
v -7.795756 2.381631 -3.089155
v -8.025486 2.253449 -2.275588
v -8.013750 2.381631 -2.275588
v -7.805920 2.253449 -1.456151
v -7.795756 2.381631 -1.462020
v -7.206049 2.253449 -0.856282
v -7.200181 2.381631 -0.866448
v -6.425040 1.876272 -0.691785
v -6.425040 2.004454 -0.703523
v -5.567176 1.933268 -0.856282
v -5.573046 2.182134 -0.866448
v -4.967308 2.160648 -1.456151
v -4.977472 2.314745 -1.462020
v -4.747740 2.253449 -2.275588
v -4.759478 2.381631 -2.275588
v -6.620456 1.817792 0.019302
v -5.209095 1.983747 -0.263245
v -5.216007 2.134725 -0.275218
v -6.620456 1.968769 0.005477
v -4.439995 2.178053 -1.110873
v -4.451968 2.329031 -1.117786
v -4.143248 2.262927 -2.182494
v -4.157072 2.413904 -2.182494
v -4.499629 2.243383 -3.270734
v -4.511602 2.394360 -3.263821
vt 0.600466 0.184443
vt 0.558004 0.141981
vt 0.500000 0.126438
vt 0.441996 0.141981
vt 0.399534 0.184443
vt 0.383991 0.242447
vt 0.399534 0.300451
vt 0.441996 0.342913
vt 0.500000 0.358456
vt 0.558004 0.342913
vt 0.600466 0.300451
vt 0.616009 0.242447
vt 0.037112 0.612662
vt 0.088127 0.612662
vt 0.139141 0.612662
vt 0.190156 0.612662
vt 0.241170 0.612662
vt 0.292185 0.612662
vt 0.343199 0.612662
vt 0.394213 0.612662
vt 0.445228 0.612662
vt 0.496242 0.612662
vt 0.547256 0.612662
vt 0.598271 0.612662
vt 0.649285 0.612662
vt 0.037112 0.988602
vt 0.088127 0.988602
vt 0.139141 0.988602
vt 0.190156 0.988602
vt 0.241170 0.988602
vt 0.292185 0.988602
vt 0.343199 0.988602
vt 0.394213 0.988602
vt 0.445228 0.988602
vt 0.496242 0.988602
vt 0.547256 0.988602
vt 0.598271 0.988602
vt 0.649285 0.988602
vt 0.957879 0.765625
vt 0.900687 0.708434
vt 0.822562 0.687500
vt 0.744437 0.708434
vt 0.687246 0.765625
vt 0.666312 0.843750
vt 0.687246 0.921875
vt 0.744437 0.979066
vt 0.822562 1.000000
vt 0.900687 0.979066
vt 0.957879 0.921875
vt 0.978812 0.843750
vt 0.500000 0.237807
vt 0.822562 0.837500
vt 0.558004 0.141981
vt 0.600466 0.184443
vt 0.500000 0.126438
vt 0.441996 0.141981
vt 0.399534 0.184443
vt 0.383991 0.242447
vt 0.399534 0.300451
vt 0.441996 0.342913
vt 0.500000 0.358456
vt 0.558004 0.342913
vt 0.600466 0.300451
vt 0.616009 0.242447
vt 0.649285 0.837080
vt 0.037112 0.837080
vt 0.088127 0.837080
vt 0.139141 0.837080
vt 0.190156 0.837080
vt 0.241170 0.837080
vt 0.292185 0.837080
vt 0.343199 0.837080
vt 0.394213 0.837080
vt 0.445228 0.837080
vt 0.496242 0.837080
vt 0.547256 0.837080
vt 0.598271 0.837080
vt 0.649285 0.822833
vt 0.037112 0.822833
vt 0.088127 0.822833
vt 0.139141 0.822833
vt 0.190156 0.822833
vt 0.241170 0.822833
vt 0.292185 0.822833
vt 0.343199 0.822833
vt 0.394213 0.822833
vt 0.445228 0.822833
vt 0.496242 0.822833
vt 0.547256 0.822833
vt 0.598271 0.822833
vt 0.037112 0.822833
vt 0.088127 0.822833
vt 0.088127 0.837080
vt 0.037112 0.837080
vt 0.139141 0.822833
vt 0.139141 0.837080
vt 0.190156 0.822833
vt 0.190156 0.837080
vt 0.241170 0.822833
vt 0.241170 0.837080
vt 0.292185 0.822833
vt 0.292185 0.837080
vt 0.343199 0.822833
vt 0.343199 0.837080
vt 0.394213 0.822833
vt 0.394213 0.837080
vt 0.445228 0.822833
vt 0.445228 0.837080
vt 0.496242 0.822833
vt 0.496242 0.837080
vt 0.547256 0.822833
vt 0.547256 0.837080
vt 0.598271 0.822833
vt 0.598271 0.837080
vt 0.649285 0.822833
vt 0.649285 0.837080
vt 0.445228 0.822833
vt 0.181255 0.206514
vt 0.000000 0.000000
vt 0.445228 0.837080
vt 0.348318 0.358716
vt 0.197154 0.003560
vt 0.279193 0.526134
vt 0.199287 0.044870
vt 0.649285 0.822833
vt 0.649285 0.837080
vt 0.339260 0.361125
vt 0.178607 0.203492
vt 0.004194 0.268128
vt 0.269992 0.522058
vt 0.555273 0.400440
vt 0.561955 0.563479
vt 0.762873 0.324621
vt 0.834953 0.467710
vt 0.904575 0.152952
vt 1.013098 0.225836
vt 0.002819 0.037742
vt 0.498758 0.044766
vt 0.499285 0.087423
vt 0.802669 0.073422
vt 0.801443 0.115584
vt 1.000000 0.090159
vt 0.997720 0.129895
vt 0.000000 0.269076
vt 0.564809 0.404384
vt 0.577266 0.565425
vt 0.763197 0.332473
vt 0.841243 0.467964
vt 0.890283 0.170457
vt 1.000000 0.235202
vn 0.704357 0.088109 -0.704357
vn 0.704357 0.088109 -0.704357
vn 0.704357 0.088109 -0.704357
vn 0.704357 0.088109 -0.704357
vn 0.257812 0.088109 -0.962169
vn 0.257812 0.088109 -0.962169
vn 0.257812 0.088109 -0.962169
vn 0.257812 0.088109 -0.962169
vn -0.257812 0.088109 -0.962169
vn -0.257812 0.088109 -0.962169
vn -0.257812 0.088109 -0.962169
vn -0.257812 0.088109 -0.962169
vn -0.704356 0.088109 -0.704357
vn -0.704356 0.088109 -0.704357
vn -0.704356 0.088109 -0.704357
vn -0.704356 0.088109 -0.704357
vn -0.962169 0.088110 -0.257812
vn -0.962169 0.088110 -0.257812
vn -0.962169 0.088110 -0.257812
vn -0.962169 0.088110 -0.257812
vn -0.962169 0.088110 0.257812
vn -0.962169 0.088110 0.257812
vn -0.962169 0.088110 0.257812
vn -0.962169 0.088110 0.257812
vn -0.704356 0.088109 0.704358
vn -0.704356 0.088109 0.704358
vn -0.704356 0.088109 0.704358
vn -0.704356 0.088109 0.704358
vn -0.216910 0.062881 0.974164
vn -0.216910 0.062881 0.974164
vn -0.216910 0.062881 0.974164
vn -0.216910 0.062881 0.974164
vn 0.217126 0.053287 0.974688
vn 0.217126 0.053287 0.974688
vn 0.217126 0.053287 0.974688
vn 0.217126 0.053287 0.974688
vn 0.699412 0.078516 0.710393
vn 0.699412 0.078516 0.710393
vn 0.699412 0.078516 0.710393
vn 0.699412 0.078516 0.710393
vn 0.961192 0.085384 0.262335
vn 0.961192 0.085384 0.262335
vn 0.961192 0.085384 0.262335
vn 0.961192 0.085384 0.262335
vn 0.962169 0.088110 -0.257812
vn 0.962169 0.088110 -0.257812
vn 0.962169 0.088110 -0.257812
vn 0.962169 0.088110 -0.257812
vn 0.040227 -0.996758 -0.069675
vn 0.069675 -0.996758 -0.040227
vn -0.000000 -1.000000 -0.000000
vn 0.000000 -0.996758 -0.080453
vn -0.040227 -0.996758 -0.069675
vn -0.069675 -0.996758 -0.040227
vn -0.080453 -0.996758 -0.000000
vn -0.069675 -0.996758 0.040227
vn -0.040227 -0.996758 0.069675
vn 0.000000 -0.996758 0.080453
vn 0.040227 -0.996758 0.069675
vn 0.069675 -0.996758 0.040227
vn 0.080453 -0.996758 0.000000
vn 0.000000 1.000000 0.000000
vn 0.000000 1.000000 0.000000
vn 0.000000 1.000000 -0.000000
vn 0.000000 1.000000 0.000000
vn 0.000000 1.000000 0.000000
vn 0.000000 1.000000 0.000000
vn 0.000000 1.000000 0.000000
vn 0.000000 1.000000 0.000000
vn 0.000000 1.000000 0.000000
vn 0.000000 1.000000 0.000000
vn 0.000000 1.000000 -0.000000
vn 0.000000 1.000000 -0.000000
vn 0.000000 1.000000 0.000000
vn 0.517316 0.681738 -0.517317
vn 0.517316 0.681738 -0.517317
vn 0.517316 0.681738 -0.517317
vn 0.517316 0.681738 -0.517317
vn 0.189351 0.681738 -0.706668
vn 0.189351 0.681738 -0.706668
vn 0.189351 0.681738 -0.706668
vn 0.189351 0.681738 -0.706668
vn -0.189352 0.681738 -0.706668
vn -0.189352 0.681738 -0.706668
vn -0.189352 0.681738 -0.706668
vn -0.189352 0.681738 -0.706668
vn -0.517317 0.681738 -0.517317
vn -0.517317 0.681738 -0.517317
vn -0.517317 0.681738 -0.517317
vn -0.517317 0.681738 -0.517317
vn -0.706667 0.681738 -0.189353
vn -0.706667 0.681738 -0.189353
vn -0.706667 0.681738 -0.189353
vn -0.706667 0.681738 -0.189353
vn -0.706667 0.681738 0.189353
vn -0.706667 0.681738 0.189353
vn -0.706667 0.681738 0.189353
vn -0.706667 0.681738 0.189353
vn -0.517317 0.681738 0.517317
vn -0.517317 0.681738 0.517317
vn -0.517317 0.681738 0.517317
vn -0.517317 0.681738 0.517317
vn -0.189351 0.681738 0.706668
vn -0.189351 0.681738 0.706668
vn -0.189351 0.681738 0.706668
vn -0.189351 0.681738 0.706668
vn 0.189350 0.681738 0.706668
vn 0.189350 0.681738 0.706668
vn 0.189351 0.681738 0.706668
vn 0.189351 0.681738 0.706668
vn 0.517316 0.681738 0.517317
vn 0.517316 0.681738 0.517317
vn 0.517316 0.681739 0.517317
vn 0.517316 0.681739 0.517317
vn 0.706668 0.681738 0.189351
vn 0.706668 0.681738 0.189351
vn 0.706668 0.681738 0.189351
vn 0.706668 0.681738 0.189351
vn 0.706668 0.681738 -0.189350
vn 0.706668 0.681738 -0.189350
vn 0.706668 0.681738 -0.189351
vn 0.706668 0.681738 -0.189350
vn 0.704357 0.088107 -0.704356
vn 0.704357 0.088107 -0.704356
vn 0.704357 0.088107 -0.704356
vn 0.704357 0.088107 -0.704356
vn 0.257812 0.088109 -0.962169
vn 0.257812 0.088109 -0.962169
vn 0.257812 0.088109 -0.962169
vn 0.257812 0.088109 -0.962169
vn -0.257813 0.088108 -0.962169
vn -0.257813 0.088108 -0.962169
vn -0.257813 0.088108 -0.962169
vn -0.257813 0.088108 -0.962169
vn -0.704356 0.088102 -0.704358
vn -0.704356 0.088102 -0.704358
vn -0.704356 0.088102 -0.704358
vn -0.704356 0.088102 -0.704358
vn -0.962170 0.088096 -0.257812
vn -0.962170 0.088096 -0.257812
vn -0.962170 0.088096 -0.257812
vn -0.962170 0.088096 -0.257812
vn -0.962170 0.088096 0.257812
vn -0.962171 0.088096 0.257812
vn -0.962171 0.088096 0.257812
vn -0.962170 0.088096 0.257812
vn -0.704356 0.088104 0.704358
vn -0.704356 0.088104 0.704358
vn -0.704356 0.088104 0.704358
vn -0.704356 0.088104 0.704358
vn -0.164213 0.087703 0.982518
vn -0.164212 0.087703 0.982518
vn -0.164213 0.087703 0.982518
vn -0.164212 0.087703 0.982518
vn 0.185415 0.087864 0.978724
vn 0.185415 0.087864 0.978724
vn 0.185415 0.087864 0.978724
vn 0.185415 0.087864 0.978724
vn 0.727646 0.088058 0.680278
vn 0.727646 0.088058 0.680278
vn 0.727646 0.088058 0.680278
vn 0.727646 0.088058 0.680278
vn 0.958155 0.088096 0.272355
vn 0.958155 0.088096 0.272355
vn 0.958155 0.088096 0.272355
vn 0.958155 0.088096 0.272355
vn 0.946130 0.087967 -0.311607
vn 0.946130 0.087967 -0.311607
vn 0.946130 0.087967 -0.311607
vn 0.946130 0.087967 -0.311607
vn 0.704357 0.088109 -0.704356
vn 0.704357 0.088109 -0.704356
vn 0.704357 0.088109 -0.704356
vn 0.704357 0.088109 -0.704356
vn 0.257813 0.088109 -0.962169
vn 0.257813 0.088109 -0.962169
vn 0.257813 0.088109 -0.962169
vn 0.257813 0.088109 -0.962169
vn -0.257813 0.088109 -0.962169
vn -0.257813 0.088109 -0.962169
vn -0.257813 0.088109 -0.962169
vn -0.257813 0.088109 -0.962169
vn -0.704357 0.088109 -0.704357
vn -0.704357 0.088109 -0.704357
vn -0.704357 0.088109 -0.704357
vn -0.704357 0.088109 -0.704357
vn -0.962169 0.088110 -0.257813
vn -0.962169 0.088110 -0.257813
vn -0.962169 0.088110 -0.257813
vn -0.962169 0.088110 -0.257813
vn -0.962169 0.088110 0.257813
vn -0.962169 0.088110 0.257813
vn -0.962169 0.088110 0.257813
vn -0.962169 0.088110 0.257813
vn -0.704356 0.088109 0.704357
vn -0.704356 0.088109 0.704357
vn -0.704356 0.088109 0.704357
vn -0.704356 0.088109 0.704357
vn -0.209729 0.110873 0.971453
vn -0.209729 0.110873 0.971453
vn -0.209729 0.110873 0.971453
vn -0.209729 0.110873 0.971453
vn 0.214542 0.124549 0.968741
vn 0.214542 0.124549 0.968741
vn 0.214542 0.124549 0.968741
vn 0.214542 0.124549 0.968741
vn 0.697647 0.096607 0.709898
vn 0.697647 0.096607 0.709898
vn 0.697647 0.096607 0.709898
vn 0.697647 0.096607 0.709898
vn 0.960835 0.090183 0.262037
vn 0.960835 0.090183 0.262037
vn 0.960835 0.090183 0.262037
vn 0.960835 0.090183 0.262037
vn 0.962169 0.088109 -0.257812
vn 0.962169 0.088109 -0.257812
vn 0.962169 0.088109 -0.257812
vn 0.962169 0.088109 -0.257812
vn 0.000000 0.000000 0.000000
vn 0.000000 0.000000 0.000000
vn 0.000000 0.000000 0.000000
vn 0.000000 0.000000 0.000000
vn 0.000000 0.000000 0.000000
vn 0.000000 0.000000 0.000000
vn 0.000000 0.000000 0.000000
vn 0.000000 0.000000 0.000000
vn 0.000000 0.000000 0.000000
vn 0.000000 0.000000 0.000000
vn 0.000000 0.000000 0.000000
vn 0.000000 0.000000 0.000000
vn 0.000000 0.000000 0.000000
vn 0.000000 0.000000 0.000000
vn 0.000000 0.000000 0.000000
vn 0.000000 0.000000 0.000000
vn 0.000000 0.000000 0.000000
vn 0.000000 0.000000 0.000000
vn 0.000000 0.000000 0.000000
vn 0.000000 0.000000 0.000000
vn 0.000000 0.000000 0.000000
vn 0.000000 0.000000 0.000000
vn 0.000000 0.000000 0.000000
vn 0.000000 0.000000 0.000000
vn 0.000000 0.000000 0.000000
vn 0.000000 0.000000 0.000000
vn 0.000000 0.000000 0.000000
vn 0.000000 0.000000 0.000000
vn 0.000000 0.000000 0.000000
vn 0.000000 0.000000 0.000000
vn 0.000000 0.000000 0.000000
vn 0.000000 0.000000 0.000000
vn 0.000000 0.000000 0.000000
vn 0.000000 0.000000 0.000000
vn 0.000000 0.000000 0.000000
vn 0.000000 0.000000 0.000000
vn 0.000000 0.000000 0.000000
vn 0.000000 0.000000 0.000000
vn 0.000000 0.000000 0.000000
vn 0.000000 0.000000 0.000000
vn 0.000000 0.000000 0.000000
vn 0.000000 0.000000 0.000000
vn 0.000000 0.000000 0.000000
vn 0.000000 0.000000 0.000000
vn 0.000000 0.000000 0.000000
vn 0.000000 0.000000 0.000000
vn 0.000000 0.000000 0.000000
vn 0.000000 0.000000 0.000000
vn 0.000000 0.000000 0.000000
vn 0.000000 0.000000 0.000000
vn 0.000000 0.000000 0.000000
vn 0.000000 0.000000 0.000000
vn 0.000000 0.000000 0.000000
vn 0.000000 0.000000 0.000000
vn 0.000000 0.000000 0.000000
vn 0.000000 0.000000 0.000000
vn 0.000000 0.000000 0.000000
vn 0.506382 0.862309 0.000000
vn 0.506382 0.862309 0.000000
vn 0.000000 0.000000 0.000000
vn 0.000000 -1.000000 0.000000
vn 0.000000 -0.000000 0.000000
vn 0.000000 -0.000000 0.000000
vn 0.000000 -1.000000 0.000000
vn -0.188321 0.000002 -0.982107
vn -0.188321 0.000002 -0.982107
vn -0.188321 0.000002 -0.982107
vn -0.188321 0.000002 -0.982107
vn -0.187824 -0.000004 -0.982203
vn -0.187824 -0.000004 -0.982203
vn -0.187824 -0.000004 -0.982203
vn -0.187824 -0.000004 -0.982203
vn -0.707107 0.000000 -0.707107
vn -0.707107 0.000000 -0.707107
vn -0.707107 0.000000 -0.707107
vn -0.707107 0.000000 -0.707107
vn -0.707106 0.000000 -0.707108
vn -0.707106 0.000000 -0.707108
vn -0.707106 0.000000 -0.707108
vn -0.707106 0.000000 -0.707108
vn -0.965926 0.000000 -0.258820
vn -0.000000 0.000000 -0.000000
vn -0.000000 0.000000 -0.000000
vn -0.965926 0.000000 -0.258820
vn -0.000000 0.000000 -0.000000
vn -0.965926 0.000000 -0.258819
vn -0.965926 0.000000 -0.258819
vn -0.000000 0.000000 -0.000000
vn 0.000000 0.000000 0.000000
vn 0.000000 0.000000 0.000000
vn 0.000000 0.000000 0.000000
vn 0.000000 0.000000 0.000000
vn 0.000000 0.000000 0.000000
vn 0.000000 0.000000 0.000000
vn 0.000000 0.000000 0.000000
vn 0.000000 0.000000 0.000000
vn 0.094277 -0.995386 -0.017866
vn 0.094277 -0.995386 -0.017866
vn 0.094277 -0.995386 -0.017866
vn 0.094277 -0.995386 -0.017866
vn -0.134710 0.987661 0.079863
vn -0.134710 0.987661 0.079863
vn -0.134710 0.987661 0.079864
vn -0.134710 0.987661 0.079863
vn -0.963448 -0.024429 -0.266777
vn -0.963449 -0.024429 -0.266777
vn -0.963448 -0.024429 -0.266777
vn -0.963448 -0.024429 -0.266777
vn 0.187935 -0.976369 -0.106698
vn 0.187935 -0.976369 -0.106698
vn 0.187935 -0.976369 -0.106698
vn 0.187935 -0.976369 -0.106698
vn -0.100232 0.986502 0.129492
vn -0.100232 0.986502 0.129492
vn -0.100232 0.986502 0.129492
vn -0.100232 0.986501 0.129492
vn 0.054142 -0.995424 -0.078742
vn 0.054142 -0.995424 -0.078742
vn 0.054142 -0.995424 -0.078742
vn 0.054142 -0.995424 -0.078742
vn -0.065386 0.995894 0.062611
vn -0.065386 0.995894 0.062611
vn -0.065386 0.995894 0.062611
vn -0.065386 0.995894 0.062611
vn 0.000235 -0.999948 0.010173
vn 0.000235 -0.999948 0.010173
vn 0.000235 -0.999948 0.010173
vn 0.000235 -0.999948 0.010173
vn -0.351382 0.014996 -0.936112
vn -0.351382 0.014996 -0.936112
vn -0.351382 0.014996 -0.936112
vn -0.351382 0.014996 -0.936112
vn -0.041909 0.999119 0.002357
vn -0.041909 0.999119 0.002357
vn -0.041909 0.999119 0.002357
vn -0.041909 0.999119 0.002357
s off
g pCylinder2 boom_stammen
usemtl lambert54SG
f 39/66/1 40/67/2 14/27/3 13/26/4
f 40/67/5 41/68/6 15/28/7 14/27/8
f 41/68/9 42/69/10 16/29/11 15/28/12
f 42/69/13 43/70/14 17/30/15 16/29/16
f 43/70/17 44/71/18 18/31/19 17/30/20
f 44/71/21 45/72/22 19/32/23 18/31/24
f 45/72/25 46/73/26 20/33/27 19/32/28
f 46/73/29 47/74/30 21/34/31 20/33/32
f 47/74/33 48/75/34 22/35/35 21/34/36
f 48/75/37 49/76/38 23/36/39 22/35/40
f 49/76/41 50/77/42 24/37/43 23/36/44
f 50/77/45 39/65/46 13/38/47 24/37/48
s 1
f 27/53/49 26/54/50 28/51/51
f 29/55/52 27/53/49 28/51/51
f 30/56/53 29/55/52 28/51/51
f 31/57/54 30/56/53 28/51/51
f 32/58/55 31/57/54 28/51/51
f 33/59/56 32/58/55 28/51/51
f 34/60/57 33/59/56 28/51/51
f 35/61/58 34/60/57 28/51/51
f 36/62/59 35/61/58 28/51/51
f 37/63/60 36/62/59 28/51/51
f 38/64/61 37/63/60 28/51/51
f 26/54/50 38/64/61 28/51/51
s 2
f 13/49/62 14/48/63 25/52/64
f 14/48/63 15/47/65 25/52/64
f 15/47/65 16/46/66 25/52/64
f 16/46/66 17/45/67 25/52/64
f 17/45/67 18/44/68 25/52/64
f 18/44/68 19/43/69 25/52/64
f 19/43/69 20/42/70 25/52/64
f 20/42/70 21/41/71 25/52/64
f 21/41/71 22/40/72 25/52/64
f 22/40/72 23/39/73 25/52/64
f 23/39/73 24/50/74 25/52/64
f 24/50/74 13/49/62 25/52/64
s off
f 2/2/75 1/1/76 26/54/77 27/53/78
f 3/3/79 2/2/80 27/53/81 29/55/82
f 4/4/83 3/3/84 29/55/85 30/56/86
f 5/5/87 4/4/88 30/56/89 31/57/90
f 6/6/91 5/5/92 31/57/93 32/58/94
f 7/7/95 6/6/96 32/58/97 33/59/98
f 8/8/99 7/7/100 33/59/101 34/60/102
f 9/9/103 8/8/104 34/60/105 35/61/106
f 10/10/107 9/9/108 35/61/109 36/62/110
f 11/11/111 10/10/112 36/62/113 37/63/114
f 12/12/115 11/11/116 37/63/117 38/64/118
f 1/1/119 12/12/120 38/64/121 26/54/122
f 63/91/123 64/92/124 65/93/125 66/94/126
f 64/92/127 67/95/128 68/96/129 65/93/130
f 67/95/131 69/97/132 70/98/133 68/96/134
f 69/97/135 71/99/136 72/100/137 70/98/138
f 71/99/139 73/101/140 74/102/141 72/100/142
f 73/101/143 75/103/144 76/104/145 74/102/146
f 75/103/147 77/105/148 78/106/149 76/104/150
f 77/105/151 79/107/152 80/108/153 78/106/154
f 87/119/155 88/122/156 89/124/157 90/137/158
f 88/122/159 91/138/160 92/139/161 89/124/162
f 91/138/163 93/140/164 94/141/165 92/139/166
f 93/140/167 95/142/168 96/143/169 94/141/170
f 1/13/171 2/14/172 52/80/173 51/79/174
f 2/14/175 3/15/176 53/81/177 52/80/178
f 3/15/179 4/16/180 54/82/181 53/81/182
f 4/16/183 5/17/184 55/83/185 54/82/186
f 5/17/187 6/18/188 56/84/189 55/83/190
f 6/18/191 7/19/192 57/85/193 56/84/194
f 7/19/195 8/20/196 58/86/197 57/85/198
f 8/20/199 9/21/200 59/87/201 58/86/202
f 9/21/203 10/22/204 60/88/205 59/87/206
f 10/22/207 11/23/208 61/89/209 60/88/210
f 11/23/211 12/24/212 62/90/213 61/89/214
f 12/24/215 1/25/216 51/78/217 62/90/218
f 51/79/219 52/80/220 64/92/221 63/91/222
f 40/67/223 39/66/224 66/94/225 65/93/226
f 52/80/227 53/81/228 67/95/229 64/92/230
f 41/68/231 40/67/232 65/93/233 68/96/234
f 53/81/235 54/82/236 69/97/237 67/95/238
f 42/69/239 41/68/240 68/96/241 70/98/242
f 54/82/243 55/83/244 71/99/245 69/97/246
f 43/70/247 42/69/248 70/98/249 72/100/250
f 55/83/251 56/84/252 73/101/253 71/99/254
f 44/71/255 43/70/256 72/100/257 74/102/258
f 56/84/259 57/85/260 75/103/261 73/101/262
f 45/72/263 44/71/264 74/102/265 76/104/266
f 57/85/267 58/86/268 77/105/269 75/103/270
f 46/73/271 45/72/272 76/104/273 78/106/274
f 58/86/275 59/87/276 79/107/277 77/105/278
f 47/74/279 46/73/280 78/106/281 80/108/282
f 59/87/283 60/88/284 81/109/285 79/107/286
f 48/75/287 47/74/288 80/108/289 82/110/290
f 60/88/291 61/89/292 83/111/293 81/109/294
f 49/76/295 48/75/296 82/110/297 84/112/298
f 61/89/299 62/90/300 85/113/301 83/111/302
f 50/77/303 49/76/304 84/112/305 86/114/306
f 62/90/307 51/78/308 63/115/309 85/113/310
f 39/65/311 50/77/312 86/114/313 66/116/314
f 79/118/315 81/121/316 88/123/317 87/144/318
f 82/127/319 80/128/320 90/129/321 89/130/322
f 80/108/323 79/107/324 87/117/325 90/120/326
f 81/121/327 83/145/328 91/146/329 88/123/330
f 84/131/331 82/127/332 89/130/333 92/132/334
f 83/145/335 85/147/336 93/148/337 91/146/338
f 86/133/339 84/131/340 92/132/341 94/134/342
f 85/147/343 63/149/344 95/150/345 93/148/346
f 63/115/347 66/116/348 96/126/349 95/125/350
f 66/135/351 86/133/352 94/134/353 96/136/354
