# This file uses centimeters as units for non-parametric coordinates.

mtllib grote brug.mtl
g default
v -9.634796 0.898704 2.408225
v -8.523535 0.898704 3.145992
v -9.371301 2.228587 2.159966
v -8.397020 2.228587 2.806794
v -6.597219 2.228587 -2.018478
v -5.622940 2.228587 -1.371651
v -6.470703 0.898704 -2.357676
v -5.359443 0.898704 -1.619910
v -8.776917 1.978433 1.264676
v -7.585190 1.948684 -0.530353
v -6.610909 1.948684 0.116474
v -7.802636 1.978433 1.911504
v -6.486443 0.597610 0.077627
v -7.845457 0.631535 2.124638
v -7.597574 0.597630 -0.660332
v -8.956842 0.631562 1.387064
vt 0.201724 0.843534
vt 0.966883 0.311705
vt 0.733560 0.838338
vt 0.018636 0.796989
vt 0.019319 0.107339
vt 0.002856 0.062725
vt 0.526991 0.003505
vt 0.989875 0.702336
vt 0.053201 0.648695
vt 0.057504 0.352101
vt 0.242704 0.338945
vt 0.778167 0.714800
vt 0.460196 0.326170
vt 0.689792 0.337850
vt 0.484789 0.705378
vt 0.754424 0.324478
vt 0.526610 0.897959
vt 0.739605 0.014453
vt 0.001992 0.838377
vt 0.694661 0.671476
vt 0.208561 0.003544
vt 0.479764 0.320664
vt 0.466807 0.698679
vt 0.732697 0.062686
vt 0.264629 0.701633
vt 0.258683 0.329872
vt 0.249260 0.009198
vt 0.456925 0.004710
vt 0.472199 0.896543
vt 0.264470 0.899164
vt 0.945250 0.001795
vt 0.998008 0.884324
vt 0.238279 0.675295
vt 0.208942 0.897998
vt 0.792275 0.896249
vt 0.201433 0.061534
vn -0.534636 0.256259 0.805293
vn -0.534636 0.256259 0.805293
vn -0.534636 0.256259 0.805293
vn -0.534636 0.256259 0.805293
vn 0.534636 0.256259 -0.805292
vn 0.534636 0.256259 -0.805292
vn 0.534636 0.256259 -0.805292
vn 0.534636 0.256259 -0.805292
vn -0.828697 0.060008 -0.556472
vn -0.833709 0.060272 -0.548905
vn -0.833562 0.060302 -0.549125
vn -0.828916 0.060079 -0.556138
vn -0.035039 0.997991 0.052777
vn 0.047763 0.996265 -0.071942
vn 0.047763 0.996265 -0.071942
vn -0.035039 0.997991 0.052777
vn 0.829473 0.060272 0.555286
vn 0.834502 0.060009 0.547728
vn 0.834278 0.060081 0.548061
vn 0.829618 0.060302 0.555065
vn 0.032806 -0.998239 -0.049427
vn -0.045066 -0.996676 0.067865
vn -0.045077 -0.996675 0.067882
vn 0.032816 -0.998238 -0.049442
vn -0.085627 0.987944 0.128975
vn -0.085627 0.987944 0.128975
vn 0.080861 -0.989257 -0.121787
vn 0.080861 -0.989257 -0.121787
vn 0.826577 0.059681 0.559651
vn 0.826577 0.059681 0.559651
vn -0.836608 0.059682 -0.544542
vn -0.836608 0.059682 -0.544542
vn 0.125399 0.973960 -0.188882
vn 0.125399 0.973960 -0.188882
vn 0.838896 0.058588 0.541130
vn 0.838895 0.058588 0.541130
vn -0.117770 -0.977065 0.177407
vn -0.117770 -0.977065 0.177407
vn -0.824321 0.058585 -0.563083
vn -0.824321 0.058585 -0.563083
s off
g grote_brug grote_brug
usemtl lambert55SG
f 1/1/1 2/34/2 4/19/3 3/4/4
f 5/5/5 6/6/6 8/21/7 7/36/8
s 1
f 9/9/9 10/10/10 15/11/11 16/33/12
s 2
f 10/13/13 9/23/14 12/25/15 11/26/16
s 3
f 11/14/17 12/20/18 14/15/19 13/22/20
s 4
f 13/2/21 14/8/22 16/12/23 15/16/24
s 2
f 10/13/13 11/26/16 6/27/25 5/28/26
s 4
f 7/18/27 8/31/28 13/2/21 15/16/24
s 3
f 11/14/17 13/22/20 8/7/29 6/24/30
s 1
f 7/36/31 15/11/11 10/10/10 5/5/32
s 2
f 3/29/33 4/30/34 12/25/15 9/23/14
s 3
f 2/17/35 14/15/19 12/20/18 4/3/36
s 4
f 16/12/23 14/8/22 2/32/37 1/35/38
s 1
f 9/9/9 16/33/12 1/1/39 3/4/40
