# This file uses centimeters as units for non-parametric coordinates.

mtllib kleine opstap.mtl
g default
v 2.047705 0.103202 -4.396686
v 1.798460 0.103202 -4.002232
v 1.712576 0.103202 -3.564977
v 1.798460 0.103202 -3.127722
v 2.047704 0.103202 -2.733268
v 2.435912 0.103202 -2.420228
v 2.925082 0.103202 -2.219244
v 3.467332 0.103202 -2.149990
v 4.009582 0.103202 -2.219244
v 4.498752 0.103202 -2.420228
v 4.886960 0.103202 -2.733268
v 2.207286 1.092501 -4.253510
v 1.989808 1.092501 -3.909332
v 1.914870 1.092501 -3.527806
v 1.989808 1.092501 -3.146281
v 2.207285 1.092501 -2.802103
v 2.546014 1.092501 -2.528961
v 2.972838 1.092501 -2.353593
v 3.445975 1.092501 -2.293165
v 3.919113 1.092501 -2.353593
v 4.345936 1.092501 -2.528961
v 4.684665 1.092501 -2.802102
v 1.574496 1.092501 -4.673922
v 1.242169 1.092501 -4.147984
v 1.127658 1.092501 -3.564977
v 1.242169 1.092501 -2.981970
v 1.574495 1.092501 -2.456032
v 2.092105 1.092501 -2.038645
v 2.744333 1.092501 -1.770666
v 3.467332 1.092501 -1.678327
v 4.190332 1.092501 -1.770666
v 4.842559 1.092501 -2.038645
v 1.574496 0.103202 -4.673922
v 1.242169 0.103202 -4.147984
v 1.127658 0.103202 -3.564977
v 1.242169 0.103202 -2.981970
v 1.574495 0.103202 -2.456032
v 2.092105 0.103202 -2.038645
v 2.744333 0.103202 -1.770666
v 3.467332 0.103202 -1.678327
v 4.190332 0.103202 -1.770666
v 4.842559 0.103202 -2.038645
vt 0.623605 0.719877
vt 0.623605 0.652767
vt 0.775444 0.667025
vt 0.775444 0.725582
vt 0.623605 0.592225
vt 0.775444 0.614200
vt 0.623605 0.786988
vt 0.775444 0.784139
vt 0.623605 0.847529
vt 0.775444 0.836964
vt 0.623605 0.895575
vt 0.775444 0.878886
vt 0.854846 0.585619
vt 0.854877 0.333238
vt 1.213578 0.333282
vt 1.213547 0.585663
vt 0.854905 0.105562
vt 1.213606 0.105606
vt 0.854815 0.838000
vt 1.213516 0.838044
vt 0.854788 1.065675
vt 1.213489 1.065719
vt 0.854766 1.246360
vt 1.213467 1.246404
vt 0.434386 0.523821
vt 0.496621 0.484497
vt 0.572640 0.598918
vt 0.477539 0.659010
vt 0.365399 0.537372
vt 0.372120 0.679716
vt 0.296411 0.523821
vt 0.266700 0.659010
vt 0.234177 0.484497
vt 0.171600 0.598918
vt 0.184787 0.423248
vt 0.096128 0.505324
vt 0.153077 0.346069
vt 0.047672 0.387388
vt 0.142150 0.260517
vt 0.030975 0.256655
vt 0.153077 0.174964
vt 0.047672 0.125922
vt 0.184787 0.097785
vt 0.096128 0.007986
vt 0.778424 0.413317
vt 0.778424 0.488395
vt 0.626585 0.471496
vt 0.626585 0.405987
vt 0.778424 0.330091
vt 0.626585 0.333369
vt 0.778424 0.246866
vt 0.626585 0.260751
vt 0.778424 0.171788
vt 0.626585 0.195242
vt 0.778424 0.112205
vt 0.626585 0.143253
vt 0.854732 1.528707
vt 1.213432 1.528750
vt 0.854693 1.841689
vt 1.213394 1.841733
vt 0.854656 2.154672
vt 1.213356 2.154715
vt 0.854621 2.437018
vt 1.213322 2.437062
vn 0.906224 -0.209753 0.367099
vn 0.826715 -0.208956 0.522379
vn 0.826715 -0.208956 0.522379
vn 0.907551 -0.209703 0.363836
vn 0.979684 -0.200499 0.004538
vn 0.979750 -0.200179 -0.004320
vn 0.914085 -0.183584 -0.361587
vn 0.909631 -0.182936 -0.372969
vn 0.736614 -0.164466 -0.656012
vn 0.729191 -0.163852 -0.664405
vn 0.502931 -0.149537 -0.851293
vn 0.496804 -0.149255 -0.854932
vn 0.251835 -0.142156 -0.957273
vn 0.249944 -0.142133 -0.957772
vn -0.001725 -0.143268 -0.989682
vn 0.001686 -0.143196 -0.989693
vn -0.254751 -0.152964 -0.954832
vn -0.246312 -0.152503 -0.957117
vn -0.504044 -0.170908 -0.846599
vn -0.492346 -0.169877 -0.853661
vn -0.617514 -0.179554 -0.765792
vn -0.617514 -0.179554 -0.765792
vn 0.000000 1.000000 0.000000
vn 0.000000 1.000000 0.000000
vn 0.000000 1.000000 0.000000
vn 0.000000 1.000000 0.000000
vn 0.000000 1.000000 -0.000000
vn 0.000000 1.000000 0.000000
vn 0.000000 1.000000 -0.000000
vn 0.000000 1.000000 -0.000000
vn 0.000000 1.000000 0.000000
vn 0.000000 1.000000 0.000000
vn 0.000000 1.000000 0.000000
vn 0.000000 1.000000 0.000000
vn 0.000000 1.000000 0.000000
vn 0.000000 1.000000 0.000000
vn 0.000000 1.000000 0.000000
vn 0.000000 1.000000 0.000000
vn 0.000000 1.000000 0.000000
vn 0.000000 1.000000 0.000000
vn 0.000000 1.000000 0.000000
vn 0.000000 1.000000 0.000000
vn -0.927533 0.000000 -0.373740
vn -0.845376 0.000000 -0.534171
vn -0.845376 0.000000 -0.534171
vn -0.927533 0.000000 -0.373740
vn -1.000000 0.000000 0.000000
vn -1.000000 0.000000 0.000000
vn -0.927534 0.000000 0.373740
vn -0.927534 0.000000 0.373740
vn -0.742924 0.000000 0.669375
vn -0.742924 0.000000 0.669375
vn -0.505499 0.000000 0.862827
vn -0.505499 0.000000 0.862827
vn -0.253451 0.000000 0.967348
vn -0.253451 0.000000 0.967348
vn -0.000000 0.000000 1.000000
vn -0.000000 0.000000 1.000000
vn 0.253451 0.000000 0.967348
vn 0.253451 0.000000 0.967348
vn 0.380040 0.000000 0.924970
vn 0.380040 0.000000 0.924970
s 1
g eerste_opstapje ground
usemtl initialShadingGroup
f 2/2/1 1/5/2 12/6/3 13/3/4
f 3/1/5 2/2/1 13/3/4 14/4/6
f 4/7/7 3/1/5 14/4/6 15/8/8
f 5/9/9 4/7/7 15/8/8 16/10/10
f 6/11/11 5/9/9 16/10/10 17/12/12
f 7/45/13 6/46/11 17/47/12 18/48/14
f 8/49/15 7/45/13 18/48/14 19/50/16
f 9/51/17 8/49/15 19/50/16 20/52/18
f 10/53/19 9/51/17 20/52/18 21/54/20
f 11/55/21 10/53/19 21/54/20 22/56/22
s 2
f 13/25/23 12/26/24 23/27/25 24/28/26
f 14/29/27 13/25/23 24/28/26 25/30/28
f 15/31/29 14/29/27 25/30/28 26/32/30
f 16/33/31 15/31/29 26/32/30 27/34/32
f 17/35/33 16/33/31 27/34/32 28/36/34
f 18/37/35 17/35/33 28/36/34 29/38/36
f 19/39/37 18/37/35 29/38/36 30/40/38
f 20/41/39 19/39/37 30/40/38 31/42/40
f 21/43/41 20/41/39 31/42/40 32/44/42
s 3
f 24/14/43 23/17/44 33/18/45 34/15/46
f 25/13/47 24/14/43 34/15/46 35/16/48
f 26/19/49 25/13/47 35/16/48 36/20/50
f 27/21/51 26/19/49 36/20/50 37/22/52
f 28/23/53 27/21/51 37/22/52 38/24/54
f 29/57/55 28/23/53 38/24/54 39/58/56
f 30/59/57 29/57/55 39/58/56 40/60/58
f 31/61/59 30/59/57 40/60/58 41/62/60
f 32/63/61 31/61/59 41/62/60 42/64/62
